<svg width="49" height="50" viewBox="0 0 49 50" fill="none" xmlns="http://www.w3.org/2000/svg">
<path fill-rule="evenodd" clip-rule="evenodd" d="M49 25.4561C49 38.987 38.031 49.9561 24.5 49.9561C10.969 49.9561 0 38.987 0 25.4561C0 11.9251 10.969 0.956055 24.5 0.956055C38.031 0.956055 49 11.9251 49 25.4561ZM25.378 19.043C22.995 20.0342 18.2324 22.0857 11.0901 25.1974C9.93032 25.6586 9.32278 26.1098 9.26747 26.551C9.174 27.2966 10.1077 27.5902 11.3792 27.99C11.5521 28.0444 11.7313 28.1007 11.915 28.1605C13.166 28.5671 14.8487 29.0428 15.7235 29.0617C16.517 29.0788 17.4026 28.7517 18.3804 28.0803C25.0536 23.5757 28.4984 21.2988 28.7146 21.2497C28.8672 21.2151 29.0786 21.1716 29.2219 21.2989C29.3652 21.4262 29.3511 21.6674 29.3359 21.7321C29.2434 22.1264 25.5783 25.5338 23.6815 27.2972C23.0902 27.8469 22.6708 28.2368 22.5851 28.3259C22.393 28.5254 22.1973 28.7141 22.0091 28.8955C20.847 30.0158 19.9755 30.8559 22.0574 32.2278C23.0579 32.8871 23.8584 33.4323 24.6571 33.9762C25.5294 34.5702 26.3993 35.1627 27.525 35.9005C27.8117 36.0885 28.0856 36.2838 28.3524 36.474C29.3675 37.1976 30.2794 37.8478 31.4061 37.7441C32.0608 37.6839 32.737 37.0683 33.0805 35.2323C33.8921 30.8933 35.4875 21.4921 35.8562 17.618C35.8885 17.2786 35.8479 16.8442 35.8152 16.6536C35.7826 16.4629 35.7144 16.1912 35.4665 15.9901C35.173 15.7519 34.7198 15.7017 34.5172 15.7052C33.5957 15.7215 32.1819 16.2131 25.378 19.043Z" fill="white"/>
</svg>
