<svg width="49" height="50" viewBox="0 0 49 50" fill="none" xmlns="http://www.w3.org/2000/svg">
<circle cx="24.5" cy="24.7295" r="24.5" fill="black"/>
<path d="M37.5147 34.1016V30.1828C37.5307 29.5422 37.3101 28.9181 36.895 28.4291C35.7245 27.0504 31.7099 26.1684 30.1185 26.5071C28.878 26.7711 28.0101 28.0167 27.1617 28.8635C23.8849 27.0039 21.1717 24.2962 19.3085 21.0258C20.157 20.179 21.405 19.3129 21.6696 18.0748C22.0084 16.4891 21.1277 12.5001 19.7584 11.3249C19.2768 10.9115 18.661 10.687 18.0258 10.6932H14.0992C12.6031 10.6946 11.3584 12.0365 11.4946 13.5409C11.4844 26.5071 21.6076 36.7244 34.6614 36.7142C36.1739 36.8506 37.5208 35.5997 37.5147 34.1016Z" fill="white"/>
<path d="M37.5147 34.1016V30.1828C37.5307 29.5422 37.3101 28.9181 36.895 28.4291C35.7245 27.0504 31.7099 26.1684 30.1185 26.5071C28.878 26.7711 28.0101 28.0167 27.1617 28.8635C23.8849 27.0039 21.1717 24.2962 19.3085 21.0258C20.157 20.179 21.405 19.3129 21.6696 18.0748C22.0084 16.4891 21.1277 12.5001 19.7584 11.3249C19.2768 10.9115 18.661 10.687 18.0258 10.6932H14.0992C12.6031 10.6946 11.3584 12.0365 11.4946 13.5409C11.4844 26.5071 21.6076 36.7244 34.6614 36.7142C36.1739 36.8506 37.5208 35.5997 37.5147 34.1016Z" stroke="black" stroke-width="2" stroke-linecap="round" stroke-linejoin="round"/>
</svg>
