<svg width="105" height="105" viewBox="0 0 105 105" fill="none" xmlns="http://www.w3.org/2000/svg">
<path d="M39.375 96.25H65.625C87.5 96.25 96.25 87.5 96.25 65.625V39.375C96.25 17.5 87.5 8.75 65.625 8.75H39.375C17.5 8.75 8.75 17.5 8.75 39.375V65.625C8.75 87.5 17.5 96.25 39.375 96.25Z" stroke="#0B69E2" stroke-width="4" stroke-linecap="round" stroke-linejoin="round"/>
<path d="M67.8125 80.9375C72.625 80.9375 76.5625 77 76.5625 72.1875V32.8125C76.5625 28 72.625 24.0625 67.8125 24.0625C63 24.0625 59.0625 28 59.0625 32.8125V72.1875C59.0625 77 62.9562 80.9375 67.8125 80.9375Z" stroke="#0B69E2" stroke-width="4" stroke-linecap="round" stroke-linejoin="round"/>
<path d="M37.1875 80.9375C42 80.9375 45.9375 77 45.9375 72.1875V56.875C45.9375 52.0625 42 48.125 37.1875 48.125C32.375 48.125 28.4375 52.0625 28.4375 56.875V72.1875C28.4375 77 32.3312 80.9375 37.1875 80.9375Z" stroke="#0B69E2" stroke-width="4" stroke-linecap="round" stroke-linejoin="round"/>
</svg>
