<svg width="105" height="105" viewBox="0 0 105 105" fill="none" xmlns="http://www.w3.org/2000/svg">
<path d="M61.25 35H83.125M65.625 52.5H83.125M74.375 70H83.125M52.5 71.4437C51.8875 65.1 46.8563 60.1125 40.5125 59.5437C38.325 59.325 36.0937 59.325 33.8625 59.5437C27.5187 60.1562 22.4875 65.1 21.875 71.4437M74.375 91.875H30.625C13.125 91.875 8.75 87.5 8.75 70V35C8.75 17.5 13.125 13.125 30.625 13.125H74.375C91.875 13.125 96.25 17.5 96.25 35V70C96.25 87.5 91.875 91.875 74.375 91.875ZM45.1063 41.475C45.1063 45.8484 41.5609 49.3937 37.1875 49.3937C32.8141 49.3937 29.2688 45.8484 29.2688 41.475C29.2688 37.1016 32.8141 33.5563 37.1875 33.5563C41.5609 33.5563 45.1063 37.1016 45.1063 41.475Z" stroke="#0B69E2" stroke-width="4" stroke-linecap="round" stroke-linejoin="round"/>
</svg>
