<svg width="20" height="20" viewBox="0 0 20 20" fill="none" xmlns="http://www.w3.org/2000/svg">
<g clip-path="url(#clip0_79_1874)">
<path fill-rule="evenodd" clip-rule="evenodd" d="M2.85714 8.57143C2.85714 5.41551 5.41551 2.85714 8.57143 2.85714C11.7273 2.85714 14.2857 5.41551 14.2857 8.57143C14.2857 11.7273 11.7273 14.2857 8.57143 14.2857C5.41551 14.2857 2.85714 11.7273 2.85714 8.57143ZM8.57143 0C3.83756 0 0 3.83756 0 8.57143C0 13.3053 3.83756 17.1429 8.57143 17.1429C10.4225 17.1429 12.1366 16.556 13.5377 15.5583L17.5613 19.5819C18.1191 20.1397 19.0237 20.1397 19.5816 19.5819C20.1394 19.024 20.1394 18.1194 19.5816 17.5616L15.5581 13.5381C16.556 12.1369 17.1429 10.4227 17.1429 8.57143C17.1429 3.83756 13.3053 0 8.57143 0Z" fill="#888893" fill-opacity="0.533333"/>
</g>
<defs>
<clipPath id="clip0_79_1874">
<rect width="20" height="20" fill="white"/>
</clipPath>
</defs>
</svg>
