<svg width="228" height="228" viewBox="0 0 228 228" fill="none" xmlns="http://www.w3.org/2000/svg">
<rect width="228" height="228" fill="white"/>
<g clip-path="url(#clip0_79_2148)">
<rect width="150" height="151" transform="translate(33 38)" fill="white"/>
<path d="M154.519 76.3243C152.25 72.2528 149.734 68.8372 146.782 65.3122L160.889 62.9076L165.099 38.2876C140.712 43.616 115.259 46.2666 91.0356 52.3874C40.2655 70.3401 45.9522 144.337 97.8159 155.076C141.122 163.792 178.223 114.58 154.519 76.3243ZM108.342 148.49C58.5285 147.479 45.3234 78.7562 92.1019 59.9018C102.19 56.131 144.95 49.9555 156.105 47.6055L154.3 57.5245L115.259 64.4378L110.447 91.763L132.674 87.8555L130.87 97.1461L108.643 101.054L102.026 140.074C104.651 140.593 106.893 140.702 109.545 140.702L115.259 107.666L137.486 103.759L141.997 78.5376L119.743 82.4178L121.848 69.7936L137.158 67.0884C170.731 93.5392 150.062 148.354 108.342 148.49Z" fill="#201D1D"/>
<path d="M182.488 175.023C182.406 174.176 182.187 173.329 181.804 172.536C181.449 171.716 180.902 171.061 180.136 170.487C179.398 169.94 178.387 169.64 177.047 169.64C176.774 169.64 176.446 169.667 176.035 169.694C175.625 169.749 175.161 169.886 174.668 170.104C174.176 170.35 173.657 170.678 173.083 171.17C172.536 171.634 171.989 172.318 171.47 173.165C171.333 172.782 171.169 172.399 170.95 171.99C170.704 171.58 170.431 171.197 170.048 170.842C169.665 170.487 169.2 170.213 168.654 169.968C168.134 169.749 167.451 169.64 166.685 169.64C166.33 169.64 165.974 169.694 165.564 169.749C165.181 169.831 164.744 169.995 164.334 170.213C163.897 170.432 163.459 170.733 163.022 171.17C162.584 171.607 162.119 172.154 161.682 172.864V170.295H157.144V187.92H162.01V177.81C162.01 176.963 162.119 176.225 162.311 175.651C162.502 175.05 162.748 174.586 163.022 174.203C163.322 173.848 163.623 173.574 163.979 173.438C164.334 173.274 164.662 173.219 164.963 173.219C165.455 173.219 165.865 173.329 166.193 173.52C166.494 173.711 166.74 174.012 166.931 174.394C167.095 174.777 167.232 175.241 167.314 175.788C167.396 176.307 167.423 176.908 167.423 177.564V187.948H172.29V177.837C172.29 176.963 172.372 176.225 172.563 175.651C172.755 175.05 172.973 174.586 173.274 174.23C173.547 173.875 173.876 173.602 174.231 173.465C174.586 173.301 174.942 173.247 175.27 173.247C175.817 173.247 176.254 173.383 176.582 173.656C176.938 173.93 177.156 174.285 177.32 174.749C177.484 175.187 177.594 175.651 177.648 176.17C177.703 176.662 177.73 177.154 177.73 177.619V188.002H182.597V177.291C182.624 176.608 182.57 175.897 182.488 175.023Z" fill="#009089"/>
<path d="M155.421 169.64C154.902 169.64 154.355 169.694 153.808 169.804C153.261 169.913 152.742 170.077 152.223 170.35C151.73 170.596 151.266 170.951 150.801 171.416C150.391 171.88 150.008 172.454 149.68 173.192V170.295H144.813V187.893H149.68V180.679C149.68 179.121 149.817 177.865 150.063 176.881C150.336 175.897 150.692 175.132 151.129 174.558C151.594 174.012 152.113 173.629 152.742 173.41C153.344 173.192 154 173.11 154.711 173.11H155.339C155.585 173.11 155.777 173.137 155.995 173.137V169.585H155.421V169.64Z" fill="#009089"/>
<path d="M142.025 186.581C141.915 186.035 141.888 185.242 141.915 184.286L142.025 176.252C142.025 175.897 142.025 175.487 141.997 175.05C141.97 174.586 141.888 174.148 141.724 173.629C141.587 173.137 141.341 172.645 141.04 172.154C140.74 171.689 140.302 171.252 139.728 170.897C139.181 170.541 138.498 170.213 137.65 169.995C136.803 169.776 135.791 169.667 134.561 169.667C134.26 169.667 133.877 169.694 133.385 169.722C132.893 169.749 132.401 169.858 131.827 169.968C131.28 170.104 130.733 170.295 130.159 170.569C129.585 170.842 129.066 171.197 128.601 171.662C128.136 172.126 127.753 172.727 127.452 173.438C127.124 174.148 126.96 175.023 126.906 176.034H131.553C131.553 175.378 131.663 174.886 131.909 174.504C132.128 174.148 132.401 173.848 132.729 173.656C133.057 173.465 133.385 173.329 133.713 173.301C134.069 173.247 134.315 173.247 134.533 173.247C134.67 173.247 134.862 173.247 135.162 173.274C135.436 173.301 135.736 173.383 136.037 173.52C136.338 173.656 136.584 173.902 136.803 174.23C137.021 174.531 137.158 174.995 137.185 175.569V176.061C137.158 176.498 137.049 176.826 136.885 177.017C136.693 177.236 136.42 177.373 136.01 177.482C135.627 177.564 135.108 177.673 134.506 177.755C133.877 177.81 133.139 177.919 132.237 178.056C131.471 178.192 130.761 178.356 130.05 178.575C129.339 178.794 128.683 179.094 128.109 179.504C127.534 179.914 127.07 180.433 126.714 181.116C126.359 181.772 126.195 182.592 126.195 183.576C126.195 183.931 126.25 184.423 126.359 184.996C126.468 185.57 126.714 186.117 127.097 186.663C127.48 187.21 128.027 187.674 128.792 188.057C129.558 188.467 130.569 188.631 131.882 188.631C132.893 188.631 133.877 188.467 134.862 188.112C135.873 187.756 136.693 187.128 137.322 186.253H137.404L137.814 187.975H142.927V187.674C142.407 187.483 142.107 187.128 142.025 186.581ZM137.185 180.624C137.185 181.499 137.049 182.209 136.803 182.81C136.557 183.384 136.229 183.821 135.846 184.149C135.49 184.477 135.08 184.696 134.67 184.832C134.26 184.969 133.905 185.024 133.631 185.024C133.385 185.024 133.139 184.996 132.838 184.942C132.538 184.887 132.292 184.778 132.018 184.614C131.772 184.45 131.553 184.259 131.389 183.985C131.225 183.712 131.143 183.384 131.143 182.974C131.143 182.483 131.253 182.1 131.444 181.772C131.663 181.444 131.909 181.198 132.182 181.007C132.483 180.816 132.784 180.706 133.112 180.624C133.44 180.542 133.741 180.46 133.987 180.433C134.451 180.324 134.807 180.269 135.08 180.242C135.326 180.187 135.545 180.16 135.764 180.105C135.955 180.051 136.147 179.969 136.338 179.887C136.557 179.805 136.83 179.695 137.185 179.504V180.624Z" fill="#009089"/>
<path d="M115.97 168.355H126.961V163.628H110.693V187.893H115.97V178.629H125.266V173.902H115.97V168.355Z" fill="#009089"/>
<path d="M105.608 170.787C105.061 170.295 104.487 169.995 103.858 169.858C103.229 169.694 102.628 169.64 102.081 169.64C100.987 169.64 99.9485 169.858 98.9643 170.295C97.9527 170.733 97.1325 171.443 96.449 172.427V170.295H91.7739V187.92H96.6404V178.001C96.6404 177.837 96.6678 177.455 96.7224 176.935C96.7771 176.416 96.8865 175.87 97.0779 175.323C97.2966 174.749 97.5973 174.285 98.0348 173.848C98.4722 173.411 99.101 173.219 99.8939 173.219C100.55 173.219 101.042 173.383 101.425 173.684C101.808 173.984 102.081 174.394 102.245 174.831C102.436 175.296 102.546 175.788 102.573 176.307C102.628 176.826 102.655 177.291 102.655 177.728V187.893H107.522V176.826C107.522 175.187 107.33 173.875 107.002 172.919C106.592 171.99 106.155 171.252 105.608 170.787Z" fill="#009089"/>
<path d="M88.9031 170.295H84.0366V187.92H88.9031V170.295Z" fill="#009089"/>
<path d="M88.9031 163.628H84.0366V167.754H88.9031V163.628Z" fill="#009089"/>
<path d="M81.2756 186.581C81.1936 186.035 81.1389 185.242 81.1662 184.286L81.2482 176.252C81.2482 175.897 81.2482 175.487 81.2209 175.05C81.1936 174.586 81.1115 174.148 80.9475 173.629C80.8108 173.137 80.5647 172.645 80.264 172.154C79.9633 171.689 79.5258 171.252 78.979 170.897C78.4322 170.541 77.7214 170.213 76.8739 169.995C76.0263 169.776 75.0147 169.667 73.7845 169.667C73.4837 169.667 73.101 169.694 72.6362 169.722C72.1441 169.749 71.6246 169.858 71.0778 169.968C70.531 170.104 69.9569 170.295 69.3827 170.569C68.8359 170.842 68.3165 171.197 67.8517 171.662C67.3869 172.126 66.9768 172.727 66.6761 173.438C66.3753 174.148 66.184 175.023 66.1566 176.034H70.8044C70.8044 175.378 70.9138 174.886 71.1325 174.504C71.3512 174.148 71.6246 173.848 71.9527 173.656C72.2808 173.465 72.6088 173.329 72.9369 173.301C73.2923 173.247 73.5657 173.247 73.7845 173.247C73.9211 173.247 74.1125 173.247 74.4133 173.274C74.6867 173.301 74.9601 173.383 75.2881 173.52C75.5615 173.656 75.8349 173.902 76.0537 174.23C76.2724 174.531 76.4091 174.995 76.4091 175.569V176.061C76.3817 176.498 76.2997 176.826 76.1083 177.017C75.917 177.236 75.6162 177.373 75.2335 177.482C74.8234 177.564 74.3313 177.673 73.7024 177.755C73.0736 177.81 72.3354 177.919 71.4332 178.056C70.695 178.192 69.9569 178.356 69.246 178.575C68.5352 178.794 67.879 179.094 67.3049 179.504C66.7308 179.914 66.266 180.433 65.9106 181.116C65.5552 181.772 65.3911 182.592 65.3911 183.576C65.3911 183.931 65.4458 184.423 65.5551 184.996C65.6645 185.57 65.9106 186.117 66.2933 186.663C66.6761 187.21 67.2502 187.674 67.9884 188.057C68.7266 188.467 69.7655 188.631 71.0505 188.631C72.0347 188.631 73.0463 188.467 74.0305 188.112C75.0147 187.756 75.8349 187.128 76.4911 186.253H76.6005L77.0106 187.975H82.1231V187.674C81.631 187.483 81.3576 187.128 81.2756 186.581ZM76.0263 182.81C75.7803 183.384 75.4522 183.821 75.0968 184.149C74.714 184.477 74.3312 184.696 73.9211 184.832C73.5111 184.969 73.1556 185.024 72.8549 185.024C72.6362 185.024 72.3628 184.996 72.062 184.942C71.7613 184.887 71.5152 184.778 71.2418 184.614C70.9684 184.45 70.7771 184.259 70.613 183.985C70.449 183.712 70.3396 183.384 70.3396 182.974C70.3396 182.483 70.449 182.1 70.6404 181.772C70.8317 181.444 71.0778 181.198 71.3785 181.007C71.6793 180.816 71.98 180.706 72.3081 180.624C72.6362 180.542 72.9369 180.46 73.183 180.433C73.6478 180.324 74.0305 180.269 74.2766 180.242C74.5226 180.187 74.7413 180.16 74.9327 180.105C75.1241 180.051 75.3155 179.969 75.5342 179.887C75.7529 179.805 76.0263 179.695 76.3817 179.504V180.624C76.4091 181.499 76.2724 182.237 76.0263 182.81Z" fill="#009089"/>
<path d="M62.9851 163.628H58.1187V187.893H62.9851V163.628Z" fill="#009089"/>
<path d="M53.1427 166.606C52.2131 165.459 51.0375 164.557 49.6158 163.901C48.1942 163.273 46.5264 162.945 44.5853 162.945C42.3708 162.945 40.539 163.355 39.09 164.147C37.641 164.967 36.4927 165.978 35.6178 167.235C34.743 168.492 34.1415 169.885 33.7861 171.388C33.4306 172.919 33.2666 174.367 33.2666 175.788C33.2666 177.209 33.458 178.657 33.7861 180.16C34.1415 181.69 34.743 183.056 35.6178 184.313C36.4927 185.543 37.641 186.581 39.09 187.374C40.539 188.193 42.3981 188.576 44.5853 188.576C46.4991 188.576 48.1942 188.248 49.6158 187.592C51.0375 186.964 52.2131 186.062 53.1427 184.914C54.0722 183.767 54.7557 182.428 55.2479 180.87C55.6853 179.285 55.9314 177.591 55.9314 175.76C55.9314 173.93 55.6853 172.235 55.2479 170.651C54.7557 169.093 54.0722 167.754 53.1427 166.606ZM50.1626 177.099C50.1353 177.618 50.0533 178.192 49.9439 178.793C49.8346 179.395 49.6432 179.996 49.4245 180.597C49.2058 181.198 48.8777 181.745 48.4676 182.236C48.0575 182.728 47.538 183.138 46.8819 183.411C46.253 183.712 45.4875 183.849 44.5853 183.849C43.8745 183.849 43.1636 183.739 42.4801 183.466C41.7966 183.22 41.2225 182.783 40.703 182.154C40.1836 181.553 39.7462 180.706 39.4454 179.668C39.1447 178.629 38.9806 177.318 38.9806 175.706C38.9806 174.094 39.1447 172.782 39.4454 171.716C39.7462 170.651 40.1836 169.831 40.703 169.23C41.2225 168.628 41.824 168.191 42.4801 167.945C43.1636 167.699 43.8471 167.563 44.5853 167.563C45.4875 167.563 46.253 167.727 46.8819 168.027C47.5107 168.328 48.0301 168.738 48.4676 169.202C48.8777 169.667 49.2058 170.213 49.4245 170.814C49.6705 171.416 49.8346 172.017 49.9439 172.618C50.0806 173.219 50.1353 173.793 50.1626 174.339C50.19 174.886 50.2173 175.323 50.2173 175.706C50.2173 176.116 50.19 176.553 50.1626 177.099Z" fill="#009089"/>
</g>
<defs>
<clipPath id="clip0_79_2148">
<rect width="150" height="151" fill="white" transform="translate(33 38)"/>
</clipPath>
</defs>
</svg>
