<svg width="228" height="228" viewBox="0 0 228 228" fill="none" xmlns="http://www.w3.org/2000/svg">
<rect width="228" height="228" fill="white"/>
<g clip-path="url(#clip0_79_2101)">
<path d="M161.929 170.475C166.414 170.867 170.39 167.574 170.783 163.108C170.807 162.97 170.807 162.832 170.807 162.67H166.09C165.605 164.558 164.449 165.502 161.929 165.502C159.409 165.502 158.091 164.558 157.698 162.67H152.981C153.166 167.183 157.027 170.705 161.559 170.498C161.674 170.498 161.79 170.475 161.929 170.475Z" fill="black"/>
<path d="M64.9422 192.278V172.916H59.0005V201.142H65.1965L77.1724 181.458V201.142H83.1141V172.916H76.9181L64.9422 192.278Z" fill="black"/>
<path d="M40.2738 173.146C35.8118 172.939 31.604 175.31 29.477 179.201C29.7776 172.801 31.0954 169.002 38.7248 168.012L50.6083 166.424L50.1227 160.115L37.7307 161.773C27.0495 163.2 24.0439 171.166 24.0439 183.691C24.0439 194.65 29.1765 201.672 38.7017 201.672C47.9958 201.672 53.0358 194.742 53.0358 186.615C53.4982 179.639 48.1807 173.63 41.1755 173.169C40.8981 173.146 40.5975 173.146 40.2738 173.146ZM38.7248 195.456C33.338 195.456 30.1706 191.68 30.1706 185.993V183.069C31.3035 180.859 34.3321 179.132 38.7248 179.132C43.3719 179.132 46.9554 181.25 46.9554 186.615C46.9554 191.979 44.1117 195.456 38.7248 195.456Z" fill="black"/>
<path d="M199.059 172.916V183.484H187.476V172.916H181.534V201.142H187.476V189.308H199.059V201.142H205V172.916H199.059Z" fill="black"/>
<path d="M155.894 192.278V172.916H149.953V201.142H156.149L168.125 181.458V201.142H174.066V172.916H167.87L155.894 192.278Z" fill="black"/>
<path d="M93.8182 190.183C93.1709 193.337 92.2692 194.673 90.4659 194.673C89.7261 194.696 88.9862 194.627 88.2695 194.443V200.981C89.1943 201.395 90.1885 201.58 91.2057 201.534C94.0725 201.603 96.6388 199.807 97.5636 197.113C98.3034 194.903 98.7658 192.578 98.9507 190.252C99.3438 186.477 99.5287 182.701 99.5287 178.902H107.436V201.142H113.377V172.916H94.558C94.6736 178.695 94.4193 184.451 93.8182 190.183Z" fill="black"/>
<path d="M141.421 193.498L141.514 182.309C141.606 175.218 137.121 172.294 130.602 172.294C124.96 171.857 120.036 176.024 119.597 181.642C119.597 181.665 119.597 181.711 119.597 181.734H125.307C125.631 179.132 127.758 178.257 130.602 178.257C133.515 178.257 135.48 179.132 135.78 182.033L128.498 184.888C123.527 186.868 119.782 189.078 119.782 193.729C119.782 198.54 122.556 201.626 128.082 201.626C131.596 201.718 134.832 199.692 136.266 196.491C136.566 199.899 138.878 201.395 142.901 201.395H144.543V195.962H144.057C142.161 195.939 141.421 195.225 141.421 193.498ZM130.255 195.709C127.48 195.709 125.446 194.995 125.446 192.554C125.446 190.436 127.157 189.492 130.093 188.295L135.78 186.016L135.711 193.66C134.278 195.087 132.289 195.824 130.255 195.709Z" fill="black"/>
</g>
<g clip-path="url(#clip1_79_2101)">
<path d="M114.5 151.935C149.907 152.455 179 123.371 179.521 87C178.935 50.5636 149.842 21.4795 114.5 22C79.0936 21.4795 50.0002 50.5636 49.4795 87C50.0002 123.371 79.0936 152.455 114.5 151.935Z" fill="#FFC800"/>
<path d="M142.422 135.408C120.358 148.161 96.4065 150.438 81.1113 142.826C101.418 154.928 126.476 155.058 146.913 143.281C167.155 131.83 179.651 109.838 179.391 86.0239C178.48 103.071 164.486 122.656 142.422 135.408Z" fill="black"/>
<path d="M122.701 26.8149C127.192 34.5577 116.388 49.1973 98.5542 59.4776C80.7207 69.7579 62.6919 71.8399 58.201 64.0972C58.0057 63.7068 57.8104 63.3164 57.6803 62.926C56.8342 58.1763 58.1359 53.3615 61.26 49.7178C61.7807 48.937 62.3665 48.2213 62.9522 47.4405C68.1591 40.6738 74.6677 35.0131 82.0224 30.7839C89.3771 26.4245 97.5128 23.6918 105.909 22.5857C106.885 22.4556 107.796 22.3254 108.708 22.2604C113.394 21.4145 118.21 22.6507 121.92 25.7739C122.18 26.0992 122.506 26.4245 122.701 26.8149Z" fill="black"/>
<path d="M150.363 35.1432C158.173 48.6767 142.422 72.3604 115.151 88.1062C87.8802 103.852 59.4376 105.609 51.6924 92.0751C50.3907 89.7978 49.6748 87.2603 49.5446 84.5926C49.2192 93.8969 50.8463 103.136 54.426 111.725C54.9467 113.026 55.5325 114.327 56.1833 115.629L56.2484 115.824C58.7217 119.923 62.2363 123.241 66.4018 125.388C81.697 133.587 107.536 130.789 131.748 116.8C155.895 102.876 171.255 81.8599 171.841 64.5526C172.101 59.8029 170.995 55.1182 168.652 51.0191C167.741 49.7178 166.829 48.4165 165.853 47.1802C160.191 39.893 153.096 33.907 145.026 29.6777C147.238 31.0441 149.061 32.931 150.363 35.1432Z" fill="black"/>
<path d="M114.5 151.935C149.907 152.455 179 123.371 179.521 87C178.935 50.5636 149.842 21.4795 114.5 22C79.0936 21.4795 50.0002 50.5636 49.4795 87C50.0002 123.371 79.0936 152.455 114.5 151.935Z" fill="url(#paint0_radial_79_2101)"/>
</g>
<defs>
<radialGradient id="paint0_radial_79_2101" cx="0" cy="0" r="1" gradientUnits="userSpaceOnUse" gradientTransform="translate(114.487 86.9906) scale(64.9802 64.9809)">
<stop offset="0.5" stop-color="white" stop-opacity="0"/>
<stop offset="1" stop-color="white" stop-opacity="0.35"/>
</radialGradient>
<clipPath id="clip0_79_2101">
<rect width="181" height="46" fill="white" transform="translate(24 160)"/>
</clipPath>
<clipPath id="clip1_79_2101">
<rect width="129" height="130" fill="white" transform="translate(50 22)"/>
</clipPath>
</defs>
</svg>
