<svg width="228" height="228" viewBox="0 0 228 228" fill="none" xmlns="http://www.w3.org/2000/svg">
<rect width="228" height="228" fill="white"/>
<g clip-path="url(#clip0_106_141)">
<rect width="174" height="84" transform="translate(26 65)" fill="white"/>
<path d="M31.0039 148.917C29.1831 148.681 27.5207 147.529 26.6727 145.917C25.8562 144.365 25.7778 142.476 26.4658 140.931C26.5881 140.656 32.4083 131.46 39.3995 120.495C46.3907 109.53 54.6904 96.5121 57.8432 91.5666C60.9961 86.6211 63.6731 82.3351 63.7922 82.0422C64.2329 80.9584 64.1349 79.6195 63.5385 78.5782C63.2192 78.0207 62.4472 77.2667 61.9209 76.9985C60.9766 76.5173 61.5327 76.5349 47.2678 76.5332C32.5006 76.5332 33.3779 76.5684 31.9929 75.8865C29.5683 74.6925 28.2819 71.7611 29.0448 69.1681C29.4715 67.7177 30.6822 66.2568 31.9898 65.6145C33.3493 64.9468 31.2714 64.9955 57.3286 65.0216L80.7677 65.0451L81.3587 65.2471C83.1207 65.8492 84.5616 67.3059 85.112 69.0415C85.2738 69.5515 85.3137 69.8929 85.3136 70.7672C85.3133 71.9576 85.1342 72.7096 84.6536 73.5374C84.5231 73.7622 76.1527 86.9025 66.0526 102.738C55.9525 118.574 47.6094 131.709 47.5125 131.928C47.2836 132.444 47.2051 133.58 47.354 134.22C47.6374 135.436 48.4726 136.466 49.6173 137.013L50.3099 137.343L65.357 137.39C82.17 137.442 80.7492 137.383 82.177 138.092C83.0798 138.54 84.0917 139.538 84.568 140.449C85.9754 143.143 85.1783 146.332 82.6805 148.001C81.9105 148.516 81.1522 148.794 80.1768 148.92C79.3361 149.029 31.8449 149.025 31.0039 148.916V148.917ZM155.294 148.879C154.55 148.743 153.48 148.271 152.88 147.813C152.263 147.342 151.57 146.496 151.226 145.793C150.584 144.481 150.635 148.028 150.661 106.776L150.684 69.4959L150.932 68.8168C151.242 67.9705 151.87 67.0408 152.537 66.4428C153.15 65.8935 154.472 65.2311 155.224 65.0965C155.594 65.0304 161.924 65 175.371 65C194.599 65 194.992 65.0044 195.68 65.1795C196.744 65.4513 197.4 65.8397 198.285 66.7221C198.881 67.316 199.141 67.6573 199.394 68.1789C200.063 69.5587 200.171 71.1608 199.691 72.5885C199.386 73.4973 199.095 73.9826 198.435 74.688C197.747 75.4224 196.969 75.9296 196.053 76.2418L195.325 76.4895L181.824 76.5359C169.035 76.5797 168.296 76.5909 167.823 76.7489C165.815 77.4186 164.231 79.0825 163.78 80.9958C163.577 81.8562 163.575 95.8218 163.778 96.6814C164.265 98.746 165.947 100.43 168.06 100.97C168.738 101.143 169.112 101.149 179.634 101.151C191.782 101.151 191.178 101.122 192.549 101.797C193.932 102.478 195.054 103.829 195.518 105.372C195.781 106.247 195.742 107.804 195.434 108.733C194.873 110.422 193.441 111.857 191.734 112.437L191.143 112.638L179.778 112.684L168.413 112.729L167.63 113.01C166.094 113.559 164.934 114.56 164.272 115.908C163.615 117.244 163.64 116.886 163.64 125.041C163.64 131.984 163.649 132.4 163.816 133.051C164.345 135.119 165.883 136.649 168.05 137.264C168.554 137.407 169.563 137.417 181.324 137.396C190.412 137.379 194.284 137.402 194.862 137.476C197.399 137.799 199.365 139.592 199.865 142.04C200.045 142.922 200.045 143.482 199.865 144.351C199.436 146.429 198.008 148.029 195.969 148.72L195.235 148.969L175.596 148.984C159.582 148.997 155.835 148.977 155.294 148.879ZM116.817 148.861C116.319 148.778 115.377 148.432 114.817 148.127C114.037 147.702 112.77 146.437 112.339 145.654C112.161 145.329 111.919 144.777 111.802 144.428L111.589 143.792L111.542 112.593C111.499 84.1928 111.482 81.3521 111.348 80.9254C110.7 78.8593 109.441 77.5233 107.497 76.8368L106.771 76.5804L100.588 76.5312C94.9322 76.4862 94.363 76.4679 93.9055 76.3166C91.8545 75.6383 90.3511 74.0273 89.9024 72.0269C89.7618 71.4004 89.7871 69.947 89.9497 69.3143C90.4169 67.4952 91.7782 66.0136 93.6327 65.3057L94.3147 65.0454L117.635 65.0194C134.087 65.0011 141.13 65.0237 141.547 65.092C142.343 65.2247 143.644 65.8679 144.293 66.4496C144.975 67.0608 145.641 68.0703 145.917 68.9099C146.108 69.4934 146.138 69.7555 146.137 70.8127C146.135 71.8621 146.105 72.124 145.924 72.6293C145.316 74.3322 143.916 75.7007 142.183 76.2848C141.605 76.4799 141.465 76.4852 135.41 76.5359C128.529 76.5936 128.91 76.5589 127.598 77.2445C126.295 77.9246 125.234 79.2174 124.715 80.7582C124.613 81.059 124.584 86.4938 124.546 112.32C124.502 141.934 124.491 143.547 124.337 144.064C123.63 146.435 121.894 148.176 119.671 148.744C119.008 148.914 117.502 148.975 116.817 148.861Z" fill="#00BFFE"/>
</g>
<defs>
<clipPath id="clip0_106_141">
<rect width="174" height="84" fill="white" transform="translate(26 65)"/>
</clipPath>
</defs>
</svg>
