<svg width="228" height="228" viewBox="0 0 228 228" fill="none" xmlns="http://www.w3.org/2000/svg">
<rect width="228" height="228" fill="#DBDBE5"/>
<g clip-path="url(#clip0_79_2081)">
<path fill-rule="evenodd" clip-rule="evenodd" d="M133.717 114.188C133.717 113.353 134.378 105.364 143.184 105.364C149.024 105.364 151.134 108.668 152.242 114.188H133.717ZM143.504 96.7795C130.388 96.7795 122.32 106.731 122.32 118.661C122.32 128.968 128.229 140.397 143.504 140.397C157.361 140.397 161.298 131.506 162.902 126.532H155.671C154.014 126.532 152.799 127.193 151.67 128.586C151.195 129.127 148.771 131.893 143.906 131.893C134.047 131.893 133.904 124.074 133.717 121.399H163.627C164.472 109.392 158.118 96.7795 143.504 96.7795Z" fill="#703D94"/>
<path fill-rule="evenodd" clip-rule="evenodd" d="M170.697 82.2919V128.943C170.789 136.803 172.235 139.535 182.019 139.535L182.011 91.4934C181.935 83.7528 180.442 82.2919 170.697 82.2919Z" fill="#703D94"/>
<path fill-rule="evenodd" clip-rule="evenodd" d="M192.663 82.2919V128.943C192.749 136.803 194.196 139.535 203.983 139.535L203.977 91.4934C203.9 83.7528 202.397 82.2919 192.663 82.2919Z" fill="#703D94"/>
<path fill-rule="evenodd" clip-rule="evenodd" d="M109.882 123.488C109.882 123.488 107.289 123.393 106.29 126.122C104.877 130.009 102.29 131.894 97.8799 131.894C91.031 131.894 88.4201 125.37 88.4201 118.667C88.4201 112.3 91.1031 105.364 98.1287 105.364C102.51 105.364 104.834 107.326 105.826 109.862C106.368 111.253 107.173 112.502 109.688 112.502H117.69C117.084 101.793 107.882 96.7796 98.1958 96.7796C83.9223 96.7796 77.0391 107.124 77.0391 119.159C77.0391 132.634 86.3828 140.399 97.9568 140.399C108.063 140.399 116.341 135.327 117.929 123.488L109.882 123.488Z" fill="#703D94"/>
<path fill-rule="evenodd" clip-rule="evenodd" d="M70.099 118.708C70.099 133.294 61.4789 140.401 47.0462 140.401C32.5301 140.401 24.0693 133.377 24.0693 118.708V82.2944C34.2254 82.2944 35.8459 84.9803 35.9488 92.684L35.9358 118.707C35.9358 124.602 37.4465 130.42 47.0466 130.42C55.5114 130.42 58.2337 126.717 58.2337 118.707V82.294C68.3869 82.294 70.006 84.9799 70.1125 92.6836L70.099 118.708Z" fill="#703D94"/>
</g>
<defs>
<clipPath id="clip0_79_2081">
<rect width="180" height="107" fill="white" transform="translate(24 55)"/>
</clipPath>
</defs>
</svg>
